<?xml version="1.0" encoding="UTF-8"?>
<svg id="Ebene_1" data-name="Ebene 1" xmlns="http://www.w3.org/2000/svg" viewBox="0 0 245.35 242.99">
  <defs>
    <style>
      .cls-1 {
        fill: #aa2925;
      }
    </style>
  </defs>
  <path class="cls-1" d="M92.13,225.86c1.23.98,3.99,6.94,2.15,8.2-.22.15-4.03,1.28-4.54,1.34-4.5.55-16.13.07-20.14-1.96-1.24-.62-1.94-3.25-2.89-4.47-.7-.9-1.81-.9-2.05-2.09-.26-1.29,1.33-11.11,1.94-12.32,2.83-5.59,8.32,2.51,10.5,3.56,2.75,1.33,7.69,1.03,10.54,3.72.9.85.79,2.37,1.59,3.01s2.1.37,2.9,1.01Z"/>
  <path class="cls-1" d="M212.65,143.81c-.32.2-2.75.2-3.07,0l-8.72-16.82c-.47-2.37.87-2.18,1.69-3.63,3.37-6.02-4.04-9.34-2.49-13.99.45-1.36,2.75-4.16,4.18-2.28.94,2.06,1.83,9.44,3.18,10.61.86.74,2.24.51,3.23,1.82.91,1.21,3.34,8.37,2.91,9.78-.35,1.15-2.05,1.21-1.76,3.28.23,1.61,2.54,2.8,2.62,4.54.05,1.1-.96,6.2-1.77,6.69Z"/>
  <path class="cls-1" d="M234.34,113.08l-2.78.77c-.22,1.94.36,4.52,0,6.35-.24,1.23-1.27,1.39-1.59,2.08-1.49,3.2,1.92,5.95,1.63,7.53-1.3,2.33-4.98-2.79-5.1-3.65-.21-1.48,1.07-2.96.97-4.58-.1-1.7-1.83-2.45-1.92-4.13-.05-1.02.5-2.09.52-3.2.04-3.35-.14-6.71.05-10.06l.63-.76c.6-.13.95.09,1.4.43.49.37,5.78,7.23,5.97,7.82.16.47.28.9.21,1.4Z"/>
  <path class="cls-1" d="M59.55,210.96l-3.61.98c-.29-2.74-.07-4.27,2.53-5.51,1.07,1.33,1.45,2.83,1.08,4.53Z"/>
  <path class="cls-1" d="M60.52,217.45c-.52-.21-4.17.6-3.67-.68.68-1.75,3.69-1.48,3.67.68Z"/>
  <path class="cls-1" d="M210.21,81.8c-.61-.97-1.43.49-1.86.45-.35-.65-1.89-2.1-1.99-2.58-.2-1.01,4.4-8.23,2.62-9.3-2.38-.2-5.61.26-5.95-2.79-1.12-.76-5.67,4.09-5.77,4.53-.25,1.1.26,1.89.14,2.49-.1.45-.6.91-.73,1.5-.19.9-.67,4.97-1.03,5.19-.42.25-1.63-.07-2.38.15-1.98.58-4.86,10.35-6.52,11.87-1.66,1.53-4.41-1.92-5.53-3.22-.37-.43-2.85-3.37-2.52-3.68,5.12,2.57,3.83-.5,5.72-1.87.75-.54,1.7-.31,2.58-1.1,1.86-1.66,2.03-5.08,5.88-5.38-.69-3.38,1.01-5.01,1.81-7.62.27-.89-.11-1.99.33-2.9.37-.78,2.92-1.32,2.02-3.6l-38.53-13.19-2.81.99-17.16-6.78c-3.46-2.67-2.36-7.14-3.18-11.07-.2-.96-1.69-5.65-2.14-6.14-.83-.91-2.32-.53-3.44-1.16-1.31-.74-3.08-3.69-5.31-4.35-2.18-.64-4.73,1.15-6.47-.44-1.5-1.37,2.87-3.82,1.17-5.28-3.78.61-2.34,4.04-3.21,5.51-.34.58-2.27.93-3.19,2.33-.79,1.2-3.14,8.36-3.56,8.62l-2.23-.16L41.26,7.36c-5.02,16.42-8.92,33.28-13.98,49.71-.87,2.82-4.2,9.85-4.22,12.09-.02,2.84,1.36,2.21,2.75,3.45,4.84,4.29,5.51,2.71,10.66,4.97.79.35,5.3,3.1,5.66,3.54.71.87,1.07,6.02.81,7.25-.46,2.22-4.41,6.69-5.78,8.93-7.92,12.93-16.81,27.22-22.04,41.41-2.21,6-4.49,11.31-3.74,17.76.37,3.15,1.57,6.45,1.8,9.69.72,9.9-.98,19.91-.38,29.81,2,1.71,6.41,10.05,8.43,10.43,1.59.3,3.78-.42,5.27.25,2.19.99,6.74,8,9.18,8.75,1.03.32,5.2.46,6-.03,1.74-1.05,6.34-10.28,8.48-12.21,2.5-1.31,3.1-1.1,3.76-4.14l15.96.11,5.04,6.98c1.21.49,3.04-.9,4.7-1.09,1.42-.16,7.63-.24,8.38.59.84.92,1.11,4.8,4.06,2.66.46-.34,4.85-7.13,5.04-7.83.49-1.84.23-3.11-.22-4.87-.27-1.03-3.2-8.15-3.68-8.73-1.27-1.55-6-2.35-8.06-3.9-1.88-1.41-5.51-5.83-5.75-8.27,2.55,2.08,5.18,4.76,7.94,6.54,2.31,1.49,5.97,2.44,7.66,3.83,1.37,1.13,3.72,5.36,5.1,5.94,3.33,1.4,10.52-2.04,11.03,2.76.46,4.33-.55,7.88,3.19,11.49l10.61-1.83c1.75-.83.24-4.63-.53-5.91-.62-1.03-2.04-1.65-2.24-2.85-.49-2.97,3.69-4.79-1.05-7.2-2.15-1.09-4.61-.22-5.38-3.12,1.06.07,1.62.87,2.73,1.17,3.82,1.03,7.01-.02,8.28,5.06,2,1.41,2.67-4.47,3.3-5.94,1.23-2.9,3.69-5.48,5-8.37.04-3.51-1.6-7.81-1.82-11.06-.06-.84-.08-1.46.67-2,1.05,3.61,5,7.25,4.26,11.15-.3,1.58-2.01,4.13-2.19,5.67-.15,1.36.29,7.9.46,9.61.35,3.45,2.74,6.95,3.74,10.28l6.37-.39,1.43-8.69c6.37,1.09,13.1-4.76,19.04-4.68,1.66.02,8.02,1.01,9.4,1.67,1.81.87,5.23,6.11,6.93,6.87,1.29.58,2.93,0,4.78.74,2.24.89,12.5,9.91,14.47,6.79.68-3.75-1.72-3.19-3.86-4.53-1.71-1.06-4.29-3.57-5.86-4.26-1.51-.66-4.41-.52-5.55-1.23-.47-.3-.71-1.61-1.45-2.34-.84-.83-2.69-1.25-3.02-1.68-.86-1.14-.92-4.61-1.8-6.13.88-.87,5.11,4.61,6.21,4.51l4.36-5.19c-2.94-2.24-7.3-2.97-9.41-6.24-1.19-1.85-2.09-8.82-2.99-9.43-1.43-.98-5.22,2.04-6.77,2.48-3.55-1.39-.13-5.45-.61-7.96-.14-.75-1.84-2.84-2.38-4.07-1.32-3.04-1.92-9.3-1.29-12.49.2-.99,1.08-1.27,1.28-1.94,1.3-4.28-2.3-5.55-2.67-8.18-.21-1.47,2.61.02,3.2-1.37-1.38-2.78-2.32-4.14-2.3-7.38.02-3.72-.13-2.25-.8-5.14-.37-1.59.07-3.41-.3-5.22-.35-1.69-1.65-3.09-2.06-4.75,2.54-2.55,6.46-2.09,4.82-6.74-.45-.66-3.68-.58-4.54-.34-.45.13-2.26,2.36-2.62.59-.15-.75,1.11-1.69,1.29-2.41.14-.58-1.49-8.98-1.85-9.89-.45-1.12-1.6-1.05-2.23-2.36-.44-.92-1.84-7.71-1.81-8.76.1-4.04,3.03-8.1,3.58-11.62.18-1.17.28-8.09.57-8.4l1.62.45c1.28,6.83-2.42,13.81.25,20.43-3.99,1.15-3.49,2.96-2.33,6.37l.58.48c1.05-.25,2.52.4,3.33.31,1.18-.12,1.66-2.02,3.02-1.18,1.59,2.6,1,5.13-.78,7.39.74,2.3,3.31,2.92,4.91,4.11,3.05,2.27,4.9,9.54,8.51,3.96l1.36.42.78,13.48,5.38,7.39c1.15,1.39,3.58-2.83,3.71-3.65.39-2.38-1.74-3.33-1.31-4.92.31-1.13,4.34-4,5.21-5.41.67-1.09,3.43-5.86,3.79-6.79.94-2.48,1.25-11.41,2.2-12.51.65-.75,2.3-.32,3.44-.7.6-.2,4.82-3.19,4.99-3.75.24-.78.25-3.15-.13-3.84Z"/>
</svg>