<?xml version="1.0" encoding="UTF-8"?>
<svg id="Ebene_1" data-name="Ebene 1" xmlns="http://www.w3.org/2000/svg" viewBox="0 0 271.62 311.44">
  <defs>
    <style>
      .cls-1 {
        fill: #80a0d4;
      }
    </style>
  </defs>
  <path class="cls-1" d="M247.46,199.29c-.12,1.51.24,3.27-.1,4.74-.25,1.11-1.47,1.9-1.53,3.31-.11,2.72,3.43,4.67.44,8.49-.4.51-9.21,4.35-10.2,4.52-7.68,1.3-8.37-1.04-6.58-7.96l15.99-12.98,1.97-.1Z"/>
  <path class="cls-1" d="M43.16,85.82c4.16-1.23,11.21,1.6,8.67,6.83-1.55,3.18-3.31,2.83-5.47,4.18-1.95,1.22-7.01,5.43-8.79,5.46-1.93.03-5.91-1.96-5.08-4.12.34-.88,6.71-8.51,7.82-9.69.57-.62,2.25-2.48,2.86-2.66Z"/>
  <path class="cls-1" d="M11.1,94.44c-1.79,1.57-5.51-1.88-4.36-3.67,1.58-1.31,5.24,2.44,4.36,3.67Z"/>
  <path class="cls-1" d="M256.69,143.35l.17-5.68,3.43-1.41c-.55-1.78-1.48-10.61-2.37-11.34-.46-.38-1.73-.26-2.31-.56-1.3-.67-1.31-10.65-2.75-11.85-.54-.45-2.08-.09-2.35-1.13l-.33-4.93-3.68-.79-3.25-21.25c-.55-.35-4.82.54-5.63.93-3.58,1.7-13.43,9.89-17.06,12.83-2.43,1.96-4.41,4.6-7.13,6.25-1.51.41-1.71-1.86-3.44-1.69-1.85.18-1.44,3.21-4.62.94-2.38-1.7-4.28-4.65-4.9-7.51-.47-2.18-.06-5.18-.95-6.87-.73-1.39-5.15-3.86-5.38-4.78l1.13-2.4-.22-1.09-9.02-6.32c.41-2.54-.98-4.18-.76-6.8-1.94-1.56-12.44-7.75-13.01-9.27-.28-.76,1.28-3.4,1.06-4.75-.29-1.82-4.91-6.84-4.98-8.36l2.76-1.39c-4.02-1.9-2.23-2.94-2.86-6.33-.19-1.06-3.78-10.76-4.26-11.37-1.41-1.79-10.86-2.8-13.35-4.59-2.12-1.53-3.64-7.52-5.62-9.22-.66-.57-9.47-5.56-10.22-5.75-1.8-.48-8.2-1.06-9.81-.58-.39.12-6.37,4.6-6.56,4.97.45,5.95,2.14,11.6,1.07,17.59-.28,1.58-3.02,5.12-3.97,7.07-2.75,5.69-5.52,11.98-6.04,18.33-.28,3.42.51,7.01-.47,10.34-1.53-.96-.91-3.55-1.63-5.03-.18-.37-2.51-2.65-2.73-2.67l-8.84,6.69c-5.45.72-12.11-.62-17.4.07-.81.11-.99.17-1.62.68-.72.58-4.38,5.59-4.9,6.6-2.89,5.6-4.36,15.36-7.74,20.31-1.52,2.22-6.91,6.88-9.18,8.75-1.84,1.51-11.91,8.2-12.4,9.21-.9,1.83.47,5.71.46,7.83l10.84,8.93.44.97c-.54,6.71-2.31,7.21-8.75,6.65v-8.05l-.69-.68-.69.68v9.43c2.5.38,6.19,1.01,8.61.1,3.12-1.17,6.59-8.53,8.63-8.85,1.18-.15,1.2,3.38,1.62,3.69,2.54-1.48,7.77-2.91,8.73.92-1.94.73-4.36.06-5.97,1.62-.23.98,5.64,4.42,2.3,6.44-2.27,1.37-3.85-2.22-5.98-2.07l2.29,2.52c-3.66,2.6-5.15-1.27-7.83-2.81l-6.41,4.65,4.13,4.82c-.33.26-3.03-.74-3.92-.69-.82.04-1.58.67-2.34.7-1.08.04-1.58-.92-2.25-.93-1.2-.03-7.73,7.62-8.93,9.04-.16.9,3.83,4,3.18,5.69-5.54-2.19-5.3,3.18-4.14,6.89l-5.68-2.68-2.52,3.31,3.15,3.05c-1.74-.49-2.85.8-4.12,1.17-1.44.42-2.49-.19-3.72.88-2.57,2.25-2.19,5.4-2.97,8.07-1.25,4.34-4.66,9.32-5.99,13.78-3.83,12.81-.37,32.61,9.02,42.49,5.23,5.5,7.9,4.44,14.32,5.91,3.87.89,12.13,2.77,15.36,4.41,4.16,2.11,9.19,8.57,12.87,10.12,1.99.84,6.35-.07,5.17,3.47-.27.79-1.73.49-1.33,1.42l2.29.71c-.35,1.72-.16,4.15-.46,5.73-.48,2.51-3.92.61-3.23,6.01.14,1.14,1.68,2.5,2.55,2.5h10.12l.71,2.52-1.34.28-.07,1.79c2.38-.53,4.72,1.2,5.06,3.44-.31,1.05-3.75.77-4.78.65-4.96-.55-13.42-4.12-17.99-3.65-.52.05-5.19,1.43-5.72,1.64-.45.18-4.41,3.35-4.53,3.74-.72,2.31.6,5.26,1.39,7.41,1.54.24,3.06.64,4.49,1.25,1.92.82,5.8,3.42,7.25,3.79,2.43.62,11.67.66,14.6.57,11.39-.36,20.51-3.68,31.33-5.46,15.51-2.55,32.04-2.93,47.66-5.24l1.28-.64-.02-8.43h-8.97c-.08,0-.72-.62-.69-.92h9.43c.69,0,2.37-2.23,3.42-2.55,3.42-1.06,4.76.52,7.48,1.31,4.16,1.21,8.42,2.13,12.51,3.58.94-2.48,3.12-.38,5.33-1.41.48-2.11-4.65-6.65-1.84-8.08l2.91.76c.44-.95,3.34-2.43,4.32-2.68,1.54-.39,3.3.15,4.86-.2,1.34-.31,2.81-2.53,4.49-.62,1.49,4.8,5.58,8.26,4.57,13.59-4.79.99-5.56-1.87-8.51-4.59l-1.6,1.6,9.63,8.32c9.27-.29,17.91-4.23,26.67-6.95l1.31-4.93c-4.47-10.58-7.42-21.86-11.67-32.51-.46-1.16-.77-2.46-1.82-3.24h-16.78l.1-2.67c2.38-.99,5.2-5.22,7.51-5.58,2.33-.37,5.28.82,7.08-1.17l-12.04-18.75c-2.19-5.75,4.65-2.72,7.94-3.75,1.05-1.32.47-3.94,1.31-5.12.21-.29,4.22-3.18,5.33-4.32,2.43-2.49,5.87-8.17,8.01-9.92,1.94-1.59,3.5-.81,4.16-4.58l.92.07,2.45,1.95c1.37-1.26,7.6-4.69,7.15-6.5l-5.91-10.91c2.92,0,5.42.89,8.29-.22.41-.29.94-2.68.93-3.26-.03-1.31-1.71-1.94-.26-2.95,1.51-.07,2.7,4.69,3.05,5.91l7.23-.47.31-7.31-7.97-14.94,5.92-3.29Z"/>
</svg>