<?xml version="1.0" encoding="UTF-8"?>
<svg id="Ebene_1" data-name="Ebene 1" xmlns="http://www.w3.org/2000/svg" viewBox="0 0 168.38 336.67">
  <defs>
    <style>
      .cls-1 {
        fill: #edd586;
      }
    </style>
  </defs>
  <path class="cls-1" d="M137.5,183.46c-.18.15-4,1.8-4.34,1.87-3.65.75-8.04-1.79-11.2-3.41.65-1.71.15-4.16.75-5.67.91-2.32,6.86-8.21,8.6-11.17,1.59-2.7,2.17-5.36,2.59-8.45.18-1.32-.27-3.89.28-4.78.76-1.23,4.04-2.27,5.55-1.39.6.35,9.54,9.28,9.88,9.88,3.1,5.41-4.57,8.95-6.85,12.51-1.65,2.58-2.94,8.64-5.26,10.6Z"/>
  <path class="cls-1" d="M89.8,238.77c-.96.05-.27-1.29-.1-1.71,3.94-9.68,15.82-25.96,22.44-34.58.68-.89,1.69-2.37,2.71-2.8,1.1.24.91,4.8.16,5.67l-25.22,33.41Z"/>
  <path class="cls-1" d="M84.29,243.37l-3.45,4.59c-1.09-.86-.51-.66,0-1.36.37-.5,2.78-3.86,3.44-3.23Z"/>
  <path class="cls-1" d="M124.76,139.67c-.27-1.42-.41-5.55-.49-7.33-.3-6.72.23-13.53.04-20.27-.2-7.06-1.76-14.41-.94-21.59.38-3.34,4.45-11.68,6.05-15.1,7.2-15.43,15.67-30.18,25.13-44.32l-.82-5.88-11.02-2.94-.02,1.34c-4.05.24-2.13-5.74-5.03-6.69-1.22-.4-4.92-.13-5.99.5-.37.22-4.05,5.56-4.34,6.24-1.8,4.22-1.66,10.68-3.41,14.99-1.61,3.95-8.29,13.53-11.02,17.49-1.15,1.67-5.63,6.47-5.97,7.82-.82,3.2.85,8.26.24,12.19-.45,2.9-3.14,10.09-4.28,13.2-4.22,11.52-10.87,23.04-16.68,33.89-19.97,37.27-41.21,73.9-61.32,111.11-2.82,8.44-2.19,17.51-3.14,26.29-.21,1.96-1.44,5.42-1.4,6.93.04,1.52,1.72,2.3,1.43,4.11-.3,1.89-3.06,1.2-3.62,1.7-.28.24-1.75,6.41-1.85,7.16-.26,2.07,1.63,1.32,2.92,1.5.64.09.8-.27.68.68-.43,3.41-3.87-.15-4.39,3.43l-4.75,32.87,3.11,1.24c-.17,2.62.33,5.27,2.21,7.25,1.97-.31,3.99-.3,5.92-.85,1.43-.41,8.85-4.18,9.98-5.07,1.95-1.52,3.77-7.75,6.29-8.54,7.68-1.05,15.99-.47,23.49-2.26,3.5-.84,4.32-1.07,6.34-4.23,2.41-3.76,5.8-18.93,6.47-23.88.15-1.14.6-5.91.42-6.75-.48-2.18-3.22-3.25-3.15-6.06.07-2.78,1.49-4.68,1.84-6.48.85-4.49-.16-10.16,2.69-14.78l36.07-50.84c1.78-4.41-1.85-10.81-.05-14.31,1.1-2.14,5.25-4.45,6.41-6.92,1.12-2.38,1.34-4.99,3.19-7.39,1.6-2.08,7.97-5.85,8.53-7.56.18-4.6.8-10.5-.84-14.86-.82-2.18-4.66-5.61-4.93-7.02Z"/>
</svg>