<?xml version="1.0" encoding="UTF-8"?>
<svg id="Ebene_1" xmlns="http://www.w3.org/2000/svg" version="1.1" viewBox="0 0 765.69 768">
  <!-- Generator: Adobe Illustrator 30.0.0, SVG Export Plug-In . SVG Version: 2.1.1 Build 123)  -->
  <defs>
    <style>
      .st0 {
        fill: #edd586;
      }

      .st1 {
        fill: #80a0d4;
      }

      .st2 {
        fill: #e49249;
      }

      .st3 {
        fill: #aa2925;
      }

      .st4 {
        fill: #697aa2;
      }
    </style>
  </defs>
  <g>
    <path class="st2" d="M644.66,546.54c-.32.45-1.61,1.5-2.13,1.74-2.91,1.36-5.82,2.9-8.22,5.12-1.53,1.41-2.28,1.57-3.25-.48,5.48.78,1.67-2.87,2.49-4.37.98-1.24,5.48-2.72,6-3.68,1.25-2.31.15-5-.22-7.35,1.68.55,1.09,2.32,1.8,3.48.64,1.05,3.52,2.3,4.43,3.4.23.47-.58,1.69-.91,2.15Z"/>
    <path class="st2" d="M664.62,534.75l.46,7.82-6.9-1.38c-.72-.8,5.53-7.37,6.44-6.44Z"/>
    <path class="st2" d="M619.55,524.64c-.06,1.6-2.16,1.58-2.56,3.2-.18.74.3,1.54.18,2.42-.32,2.44-5.26,5.52-4.96,1.56s3.9-5.94,7.34-7.18Z"/>
    <path class="st2" d="M614.95,538.89c-1.06.2-.73-.08-1.02-.59-1.12-1.96-.7-2.92.8-4.47,2.49.66.09,3.4.22,5.06Z"/>
    <g>
      <path class="st2" d="M669.35,548.4c.99,1.12,3.74.87,4.63,1.48.48.33.29,1.52.99,1.89,2.61-2.36,5.82.31,8.15-.08,1.77-.3,4.76-2.97,6.6-3.14.48-.04,4.54.53,4.79.68.66.38,2.9,6.72,3.76,8.19,1.33,2.26,3.27,4.11,4.87,6.16l.53,14.83c-.81.83-8.05.14-9.75.59-2.48.66-7.44,5.69-9.86,6.23-5.65,1.27-15,.32-21.07.54-12.07.44-17.22,3.5-28.16,6.32-6.48,1.67-13.53,2.27-19.96,3.95-19.14,4.98-44.93,15.19-62.38,24.52-3.14,1.68-11.14,8.23-13.27,8.8-1.7.46-2.68-.35-4.03-.36-2.22,0-12.64,5.53-15.74,6.79-9.98,4.03-20.47,6.9-30.45,10.97-6.8-.8-15.36.98-22.18,2.62-9.44,2.27-19.03,6.58-28.41,8.86-.61.15-.66.38-1.14-.27-.32-.42-1.85-4.74-1.97-5.39-.51-2.84.7-7.79,3.14-9.52s5.36-1.6,8.03-2.54c2.31-.81,5.17-2.59,7.45-3.13,2.68-.63,6.41-.14,8.87-.78,2-.52,6.97-4.61,8.57-4.74l6.94,3.5,8.6-.86,9.77-7.24,20.84-2.15,35.37-22.56c5.03-.8,10.72.43,15.67-.42,7.51-1.28,13.69-6.17,20.43-8.54,2.08-.73,4.33-.62,6.09-1.26,5.3-1.95,12.48-9.96,16.89-13.46.74-.58,2.04-.6,2.56-1.12.72-.71.6-3.48,1.26-4.72,1.94-3.64,9.99-1.16,13.56-2.07l9.05-7.06,1.36,1.36c-1.19,2.18-6.28,6.85-6.76,8.9-.19.81-.53,4.6,1.04,4.27,1.09-.23.48-3.4.94-4.58,1-2.51,6.15-6.24,7.49-9.06,1.52-3.2,1.94-4.73,3.85-8.1.66-1.17,1.44-4.48,2.51-4.85h5.83c2.57,2.1,2.87,4.66,1.94,7.77-.11.38-3.24,6.6-3.53,7.05-1.44,2.21-5.25,2.97-5.81,3.62-.85.98-.84,3.99,1.03,4.02,3.15-.34,3.65-3.78,5.29-5.29,2.87-2.63,2.02,2.01,2.38,3.15.62,1.95,5.72,1.22,7.3.53.6-.38.24-.6.15-1.04-.58-2.9-1.96-7.74-2.03-10.45s.97-5.79.5-8.64c-1.65-.68-7.21-6.1-3.46-6.76,2.83-.5,6.27-.14,9.14-.89.9.28,1.25,2.88,1.8,3.51Z"/>
      <path class="st2" d="M598.35,559.55l-1.96-.41c-.36.1-1.61,3.67-1.69,4.33-.43,3.57.29,6.4-.94,10.55-1.81,6.1-3.94,4.44-9.17,3.29l-1.31-4.1,1.63-1.64,1.8,1.33c1.1.25,2.99-3.86.66-3.89l2.18-1.35c-1.17-1.87.54-2.19.56-2.38.15-1.16-.17-5.5.07-6.32.16-.53,1.05-.61,1.47-1.34.72-1.26,2.69-5.52,2.42-6.78-.07-.34-1.22-3.05-1.86-2.75l-.7,3.21c-2.98.26-2.73-2.12-3.56-3.55-.28-.49-1.86-3.18-2.02-3.27-.43-.26-1.59.05-2.35-.18-1.37-.41-2.43-2.4-4.49-1.73-.42-1.6.93-1.26,1.44-2.47.73-1.74-.33-3.35,2.27-3.75l-1.41-4.82c-1.43-.98-5.87,6.04-6.22,7.34-.22.8-.42,1.53.01,2.32l2.54.92c-2.39,3.11-4.1,2.51-6.89.45.42-1.43,1.99-2.08,2.65-3.55.77-1.72.69-4.12,1.37-5.52.51-1.05,1.89-1.29,2.22-1.96.26-.52-.33-1.33-.27-1.37.16-.13,1.92.22,2.3-.69l-1.83-.91c1.76-2.59,3.17-4.3,1.29-7.28-.41-.65-1.64-1.58-1.71-1.98-.06-.35,1.83-4.93,1.82-6.83,0-3.24-2.62-6.87-2.77-9.7-.04-.8-.01-1.07.67-1.56,1.46,1.64,3.4,2.74,5.06,4.13.97.81.42,1.62,2.27,1.87,7.67,1,3.13-6.09,3.48-6.46l1.27.79c1.37,7.89,3.25,15.66,5.06,23.45.67,2.87,1.03,3.84,1.82,6.46,1.06,3.53,1.28,9.45,2.54,12.17.39.84,1.62,1.6,1.68,2.02.08.5-.72.96-.76,1.68-.13,2.18,1.5,5.35,1.28,7.92-.15,1.76-1.35,2.8-1.92,4.34Z"/>
      <path class="st2" d="M570.81,547.63c.79,1.1-1.75,2.52-2.06,3.22-.68,1.54.05,3.85-1.86,5.51-1.05.91-1.75-.07-2.97,0-.28,2.26,3.44,2.75.95,4.86-.32.27-5.08,1.93-5.4,1.95s-3.04-1.55-3.14-1.73c-.2-.35.38-1.19.04-1.86-.4-.8-1.62-.58-1.64-1.38.94.31,4.4-3.16,4.52-3.53.28-.86-.07-2.06.16-3.06.21-.92,1.2-1.53,1.29-2.41.13-1.25-1.12-2.55-.92-3.89,2.7-.63,4.22,3.54,5.76,3.69s4.26-2.78,5.27-1.39Z"/>
      <path class="st2" d="M537.38,566.15c1.21-1.08,2.4.54,3.8.76,2.57.41,6.57-.77,8.48,1.63.41.51,1.9,3.15,1.78,3.59-.95,3.6-8.11,5.03-11.12,3.45-.65-.34-4.26-4.58-4.39-5.3-.19-1.06.67-3.44,1.44-4.13Z"/>
      <path class="st2" d="M600.98,562.36c1.14-.34,4.73,2.43,5.13,3.54.6,1.66.99,5.84-1.25,6.37-1.51.36-7.1-8.96-3.88-9.91Z"/>
      <path class="st2" d="M573.54,580.31l.03,1.33c-2.42.82-4.96,1.26-7.47.36-1.35-.48-1.79-2.24-4.02-1.27,1.83-2.26,3.95-5.1,7.16-3.71,1.83.79,2.15,3.12,4.3,3.29Z"/>
      <path class="st2" d="M578.53,573.96l.33.81,2.47-.88,1.78,2.46-.57,1.19c-3.55.23-4.55,2.86-8.46.84-1.38-1.66,3.26-5.12,4.45-4.42Z"/>
      <path class="st2" d="M622.32,560.5l.46-1.38,1.62.45c.65,1.14-.04,2.09-.94,2.77l-.74-1.33c-2.54.77-4.61,2.05-7.31.87.27-.66.27-2.22.57-2.64.11-.16,3.2-1.8,3.4-1.82,2.02-.25,3.52.99,2.94,3.09Z"/>
      <path class="st2" d="M574.95,581.65c.11,1.17.08,2.24-.91,2.99l2.28,1.38-.52,1.1c-2.41-.22-5.73,2.97-5.46-1.32l1.82-.02c-.59-.99,2.18-4.82,2.78-4.12Z"/>
      <path class="st2" d="M557.93,502.1l1.83,4.12-2.06.94-1.14-.92.46,2.29h-1.83c-.49-.47.71-6.9,2.75-6.43Z"/>
      <path class="st2" d="M547.82,511.3c.64,3.69-.63,4.65-4.13,5.06l-.27-3.24c.85-1.16,3.29.22,3.48.02l.92-1.84Z"/>
      <path class="st2" d="M550.07,551.84c-.36,1.29,1.44,1.14.75,2.23-.95,1.5-1.97.68-1.16-.93h-1.84s.84,1.15.84,1.15l-1.76,1.15-.47-2.76c1.92.56,1.78-1.53,3.63-.84Z"/>
      <path class="st2" d="M753.37,306.91c-.16-1.54.43-3.28-.44-4.62l-66.54-53.91c-4.11.97-5.27,7.07-5.25,10.71,0,1.92,1.56,4.88,1.33,6.35-.2,1.27-1.74,1.71-1.78,3.29-.04,1.28,1.79,8.14,1.4,8.53-1.64-.33-3.88-1.29-5.28-2.3-7.28-5.26-9.75-16.76-14.76-24.33-1.2-1.82-5.61-6.37-5.72-8.13-.15-2.5,3.36-1.97,3.23-4.06-.12-2.04-4.68-11.07-6.43-12.47-1.68-1.34-4.55-2.02-6.33-.55-1.86,1.53.4,4.16.2,6.03-.1.92-1.41,3.32-2.39,3.51-1.33.25-13.11.22-14.16-.1-.51-.15-2.44-2.06-2.56-2.54-.3-1.18,1.06-2.88-.18-4.15-.27-.27-5.11-2.76-5.66-2.84-4.08-.64-9.36.16-13.74-.52-1.51-.23-2.42-1.48-3.37-1.73-1.12-.28-2.01.41-2.89.18-2.28-.6-5.44-5.7-7.57-5.61-1.62.07-4.21,4.24-5.77,5.07-1.42.76-5.18.93-6,1.84l-.34.87c1.23,1.82.82,3.88.85,5.97-.1.38-3.35,2.36-3.95,3.05-2.33,2.72-1.28,4.95-7.15,3.44-2.25-4.26,2.46-14.06-5.16-13.46-2.12,4-2.57,2.56-5.95,3.25-1.44.29-3.03,1.8-4.81,2.09-2.82.46-4.33-.83-7.02-.81-.49,3.68,2.52,7.02.7,10.59-1.65,3.22-9.32,1.2-5.95,7.32,2.65,4.81,6,1.74,10.37,3.51.02,3.02,1.9,7.82,1.81,10.53-.08,2.19-1.91,4.73-2.2,7.03-.52,4.11,2.52,8.61,6.53,9.79,1.1.32,4.22.36,4.39,1.13l-7.84,8.7c-1.51,1.14-4.88,1.98-6.73,1.93-1.48-.04-8.62-4.42-9.82-5.56-.91-.87-4.54-7.9-4.11-8.52l8.27-2.09c-2.29-2.57-.26-4.32-.68-7.11l-19.29-13.84c-5.3-.87-11.19,1.28-16.55,1.91-1.33.76-.26,2.13-.25,3.39.02,2.21,0,4.44-.07,6.64l-8.42,1.35c-1.29-.28-2.62-8.06.18-8.43-1.77-1.19-6.38-6.73-7.82-7.35-2.38-1.03-3.79.94-6.12.76l-2.14,3.84c-1.47.94-1.68-1.84-1.15-3,.09-.2,2.05-2.21,2.26-2.33,1.3-.74,2.54-.28,3.95-.65,1.62-.43,5.6-3.27,3.99-5.16-.3-.36-7.11-5.46-7.56-5.59-3.28-.89-2.18,2.98-3.56,2.69-2.3-2.21-4.48-6.08-8.19-4.96-.91.27-2.86,2.87-4.02,3.33-1.02.41-2.09.03-3.01.67-.98.68-1.6,3.61-2.49,4.87-3.46,4.93-11.06,10.04-15.18,14.7-.76.35-3.1.44-3.84.18-.81-.29-.62-1.57-1.47-2.2-.72-.53-2.84-1.31-3.45-.31-.66.91-.25,2.05-.66,3.02-.65,1.51-5.9,4.34-3.44,7.14,1.06,1.21,5.06.69,3.46,3.91-.48.97-6.69,5.14-8.05,6.66-4.57,5.1-9.74,15-13.88,21.07-3.68,5.4-11.28,13.58-12.66,19.52-.81,3.49-.69,7.19-1.51,10.67,2.72.2,4.38-3.28,6.69-3.65,2.01-.32,8.39.09,10.43.55.81.18,10.88,6.06,11.63,6.76,1.7,1.61,3.33,7.46,5.1,8.7,2.97,2.07,10.29,2.17,13.54,4.4.48.5,4.63,11.7,4.93,13,.26,1.16-.13,2.53.18,3.5.34,1.07,2.26.9,2.61,1.98.33,1-.07,2.49.1,3.58-.17.66-1.71-.31-1.4.93.61,2.48,4.25,3.76,3.66,7.79-.13.91-1.1,1.73-.7,2.55,1.06,2.18,10.17,6.72,12.24,8.95,1.06,1.48-.49,3.82,2.3,4.67l-.52,2.62c1.57,1.69,9.51,5.64,9.16,7.81-.12.71-1.06,1.33-.8,2.31.36,1.39,3.92,2.78,4.65,4.58,1.21,3-.46,6.51,2,10.42,3.48,5.53,4.48.49,6.4.48l2.76,2.31c7.2-7.04,15.72-12.44,23.51-18.79,2.67-.98,5.66-1.3,8.48-.77l3.27,21.1.67.7,3.39.06c.24,1.66-.63,4.91.66,6.01.77.65,1.84.27,2.35,1.78.64,1.89.99,9.13,1.8,10.16.68.86,2.14.07,2.6.71,1.55,2.2,1.6,11.37,3.08,14.32.06,1.34-2.98,1.82-4.02,2l.2,5.49-5.24,2.97,6.58,12.23c2.45.97,5.25.43,7.74-.17,4.24-1.02-.65,5.07-.93,6.45-.58,2.85,1.3,3.64,3.8,4.27l17.86-.92c.99-1.47.56-2.67,2.13-3.94.33-.27,5.12-2.82,5.42-2.89,1.31-.28,2.32,1.24,3.56,1.26,1.48.02,5.3-1.53,7.3-1.2l51.11,31.59c1.49,2.42-3.2,8.08-4.82,9.91-1.09,1.23-6.06,5.37-6.22,6.14-.12.59.3,1.27.22,1.89-1.96.25-1.09-2.29-1.43-2.7-.38-.46-3.07-.46-3.66.26-.6.72-2.64,6.55-3.3,8.12-.26.62,0,1.3-.17,1.69-.48,1.05-2.12,1.52-2.46,2.19-.7,1.34-.5,4.43-1.38,6.08l3.45-1.67.83.25,3.77,5.09c1.02-1.47,2.22-1.53,3.91-1.37l.04-4.1c2.14-.55,6.3-1.46,7.08-3.76.43-1.28.03-3.85-1.52-4.17.6-1.32-.26-2.37.01-3.72.43-2.16,2.29-1.7,3.15-2.52,1.79-1.71,5.29-10.49,6.87-11.4.29-.17,3.81-.66,4.27-.6.53.07,5.66,3.09,5.87,3.45,1.48,2.45-1.53,10.76-2.17,13.71l1.44,1.14c2.38-3.5,6.55-6.46,7.09-10.85.21-1.68-.37-3.53.49-5.03.25-.45,5.11-4.66,5.85-5.18,5.32-3.73,12.86-6.26,18.41-9.86l1.09-4.42h1.73s1.24,4.57,1.24,4.57c2.24.53,1.73-1.84,2.95-3.35.66-.82,2.19-1.44,3-2.19.69,1.6-.76,4.18,1.84,4.18,3.99,0-1.34-6.46-1.63-8.53-.3-2.18.16-8.7.51-11.03.33-2.16,5.44-4.12,7.55-4.86,2.34-.82,13.79-3.5,14.73-5.04.63-1.05-.17-4.63-.45-6-.66-3.23-3.47-9.05-3.46-11.71,0-5.49-.54-12.63,0-17.93.34-3.31,2.6-6.85,2.78-10.11.1-1.74-.49-3.08-.5-4.59-.18-15.4,1.16-32.77.04-47.86-.59-7.83-4.22-16.33-5.01-24.26.22-.79,1.86-1.64,2.6-2.03,2.99-1.56,10.63-4.51,13.89-5.42,3.91-1.09,8.34-1.09,12.21-2.5l10.88-18.55c.37-6.48-.78-13.34-1.48-19.88Z"/>
    </g>
  </g>
  <g>
    <path class="st1" d="M532.19,520.49c-.12,1.51.24,3.27-.1,4.74-.25,1.11-1.47,1.9-1.53,3.31-.11,2.72,3.43,4.67.44,8.49-.4.51-9.21,4.35-10.2,4.52-7.68,1.3-8.37-1.04-6.58-7.96l15.99-12.98,1.97-.1Z"/>
    <path class="st1" d="M327.9,407.02c4.16-1.23,11.21,1.6,8.67,6.83-1.55,3.18-3.31,2.83-5.47,4.18-1.95,1.22-7.01,5.43-8.79,5.46-1.93.03-5.91-1.96-5.08-4.12.34-.88,6.71-8.51,7.82-9.69.57-.62,2.25-2.48,2.86-2.66Z"/>
    <path class="st1" d="M295.83,415.64c-1.79,1.57-5.51-1.88-4.36-3.67,1.58-1.31,5.24,2.44,4.36,3.67Z"/>
    <path class="st1" d="M541.43,464.55l.17-5.68,3.43-1.41c-.55-1.78-1.48-10.61-2.37-11.34-.46-.38-1.73-.26-2.31-.56-1.3-.67-1.31-10.65-2.75-11.85-.54-.45-2.08-.09-2.35-1.13l-.33-4.93-3.68-.79-3.25-21.25c-.55-.35-4.82.54-5.63.93-3.58,1.7-13.43,9.89-17.06,12.83-2.43,1.96-4.41,4.6-7.13,6.25-1.51.41-1.71-1.86-3.44-1.69-1.85.18-1.44,3.21-4.62.94-2.38-1.7-4.28-4.65-4.9-7.51-.47-2.18-.06-5.18-.95-6.87-.73-1.39-5.15-3.86-5.38-4.78l1.13-2.4-.22-1.09-9.02-6.32c.41-2.54-.98-4.18-.76-6.8-1.94-1.56-12.44-7.75-13.01-9.27-.28-.76,1.28-3.4,1.06-4.75-.29-1.82-4.91-6.84-4.98-8.36l2.76-1.39c-4.02-1.9-2.23-2.94-2.86-6.33-.19-1.06-3.78-10.76-4.26-11.37-1.41-1.79-10.86-2.8-13.35-4.59-2.12-1.53-3.64-7.52-5.62-9.22-.66-.57-9.47-5.56-10.22-5.75-1.8-.48-8.2-1.06-9.81-.58-.39.12-6.37,4.6-6.56,4.97.45,5.95,2.14,11.6,1.07,17.59-.28,1.58-3.02,5.12-3.97,7.07-2.75,5.69-5.52,11.98-6.04,18.33-.28,3.42.51,7.01-.47,10.34-1.53-.96-.91-3.55-1.63-5.03-.18-.37-2.51-2.65-2.73-2.67l-8.84,6.69c-5.45.72-12.11-.62-17.4.07-.81.11-.99.17-1.62.68-.72.58-4.38,5.59-4.9,6.6-2.89,5.6-4.36,15.36-7.74,20.31-1.52,2.22-6.91,6.88-9.18,8.75-1.84,1.51-11.91,8.2-12.4,9.21-.9,1.83.47,5.71.46,7.83l10.84,8.93.44.97c-.54,6.71-2.31,7.21-8.75,6.65v-8.05l-.69-.68-.69.68v9.43c2.5.38,6.19,1.01,8.61.1,3.12-1.17,6.59-8.53,8.63-8.85,1.18-.15,1.2,3.38,1.62,3.69,2.54-1.48,7.77-2.91,8.73.92-1.94.73-4.36.06-5.97,1.62-.23.98,5.64,4.42,2.3,6.44-2.27,1.37-3.85-2.22-5.98-2.07l2.29,2.52c-3.66,2.6-5.15-1.27-7.83-2.81l-6.41,4.65,4.13,4.82c-.33.26-3.03-.74-3.92-.69-.82.04-1.58.67-2.34.7-1.08.04-1.58-.92-2.25-.93-1.2-.03-7.73,7.62-8.93,9.04-.16.9,3.83,4,3.18,5.69-5.54-2.19-5.3,3.18-4.14,6.89l-5.68-2.68-2.52,3.31,3.15,3.05c-1.74-.49-2.85.8-4.12,1.17-1.44.42-2.49-.19-3.72.88-2.57,2.25-2.19,5.4-2.97,8.07-1.25,4.34-4.66,9.32-5.99,13.78-3.83,12.81-.37,32.61,9.02,42.49,5.23,5.5,7.9,4.44,14.32,5.91,3.87.89,12.13,2.77,15.36,4.41,4.16,2.11,9.19,8.57,12.87,10.12,1.99.84,6.35-.07,5.17,3.47-.27.79-1.73.49-1.33,1.42l2.29.71c-.35,1.72-.16,4.15-.46,5.73-.48,2.51-3.92.61-3.23,6.01.14,1.14,1.68,2.5,2.55,2.5h10.12l.71,2.52-1.34.28-.07,1.79c2.38-.53,4.72,1.2,5.06,3.44-.31,1.05-3.75.77-4.78.65-4.96-.55-13.42-4.12-17.99-3.65-.52.05-5.19,1.43-5.72,1.64-.45.18-4.41,3.35-4.53,3.74-.72,2.31.6,5.26,1.39,7.41,1.54.24,3.06.64,4.49,1.25,1.92.82,5.8,3.42,7.25,3.79,2.43.62,11.67.66,14.6.57,11.39-.36,20.51-3.68,31.33-5.46,15.51-2.55,32.04-2.93,47.66-5.24l1.28-.64-.02-8.43h-8.97c-.08,0-.72-.62-.69-.92h9.43c.69,0,2.37-2.23,3.42-2.55,3.42-1.06,4.76.52,7.48,1.31,4.16,1.21,8.42,2.13,12.51,3.58.94-2.48,3.12-.38,5.33-1.41.48-2.11-4.65-6.65-1.84-8.08l2.91.76c.44-.95,3.34-2.43,4.32-2.68,1.54-.39,3.3.15,4.86-.2,1.34-.31,2.81-2.53,4.49-.62,1.49,4.8,5.58,8.26,4.57,13.59-4.79.99-5.56-1.87-8.51-4.59l-1.6,1.6,9.63,8.32c9.27-.29,17.91-4.23,26.67-6.95l1.31-4.93c-4.47-10.58-7.42-21.86-11.67-32.51-.46-1.16-.77-2.46-1.82-3.24h-16.78l.1-2.67c2.38-.99,5.2-5.22,7.51-5.58,2.33-.37,5.28.82,7.08-1.17l-12.04-18.75c-2.19-5.75,4.65-2.72,7.94-3.75,1.05-1.32.47-3.94,1.31-5.12.21-.29,4.22-3.18,5.33-4.32,2.43-2.49,5.87-8.17,8.01-9.92,1.94-1.59,3.5-.81,4.16-4.58l.92.07,2.45,1.95c1.37-1.26,7.6-4.69,7.15-6.5l-5.91-10.91c2.92,0,5.42.89,8.29-.22.41-.29.94-2.68.93-3.26-.03-1.31-1.71-1.94-.26-2.95,1.51-.07,2.7,4.69,3.05,5.91l7.23-.47.31-7.31-7.97-14.94,5.92-3.29Z"/>
  </g>
  <g>
    <path class="st4" d="M274.33,582.89l6.84-19.8c-.08-.37-5.73-3.12-6.35-4.1-.51-.81-.31-2.71-1.29-4-.77-1.02-3.11-2.01-3.66-3.24-.59-1.33-.27-3.59-.96-5.02-.44-.91-2.58-2.54-2.87-3.57-.4-1.41.23-3.12-.4-4.62-.31-.75-1.38-.78-1.9-1.81-.63-1.23-.33-2.63-.8-3.8-.48-1.19-3.05-3.11-3.33-4.03-.73-2.41-.79-2.56-1.69-4.75-1.69-4.09.65-20.7-.8-27.25-.1-.45-2.11-3.83-2.4-4.04-.95-.69-2.67-.31-3.38-.99-.91-.88-.6-4-1.95-4.72-1.89-.22-3.88-1.12-5.74-1.19-1.8-.06-6.42.29-8.24.53-3.26.44-6.47,3.49-9.45,4.81-6.48,2.87-16.64-.07-23.59,1.24-1.43.27-10.21,4.38-11.69,5.32-2.33,1.47-3.82,4.23-6.84,4.66-2.93.42-2.61-.91-4.47-1.92-3.36-1.83-7.23-2.92-11.12-2.19-1.86.35-2.08,2.91-3.89,3.46-1.15.35-2.29.03-3.37.31-.96.25-1.67,1.48-2.89,1.71-2.8.52-6.37-1.34-7.79,1.85-.95-.95-1.63-2.08-3.17-1.86l-1.43,2.32c-2.03-3.01-3.85-3.4-7.41-3.63-.75-.05-1.66.55-2.2.39-.74-.21-.72-1.53-1.18-2.06-1.43-1.68-9.11-1.52-11.63-2.63-1.96-.86-3-4.17-4.82-4.42-1.47-.2-1.55,1.51-3.02,2.33-1,.56-2.39.86-3.54.83l-.04-3.18c-.12-.2-4.39-.45-4.69-.42-.55.07-6.17,3.13-6.57,3.56-.79.85-.51,1.84-.88,2.34-.41.55-1.6.39-2.33.89-4.19,2.89-4.55,6.19-6.91,9.65-1.89,2.78-5.94,4.75-7.08,8.1-1.5,4.44-1.63,10.02-1.4,14.69.09,1.82.38,6.34.93,7.81,1.13,3.04,4.2,1.69,6.17,3.49.53.48,2.13,3.6,2.1,4.3-.13,2.51-4.13,8.15-4.39,10.8-.15,1.59,2.29,3.37,2.56,5.32.41,2.92-.68,4.18-.95,6.44-.19,1.58.28,3.51,0,5.05-.63,3.41-7.93,10.47-8.97,14.02-.68,2.32-.34,6.04-.72,8.47-1.01,6.45-3.04,12.7-4.08,19.14h7.59l2.34-10.17c4.1-1.18,7.83-.54,9.85,3.49-.43,2.02-5.4-1.69-6.45-.96-1.52,3.12-1.43,8.03-4.79,9.95-2,1.15-7.69-.31-9.77,2.42-.91,1.19-2.81,8.98-3.14,10.88-.43,2.48-.11,5.85-.43,7.38-.4,1.94-5.94,8.8-8.05,9.43-1.19.36-5.83.02-7.05-.34-.97-.28-1.89-1.75-3.88-2.09-3.66-.62-4.79-.21-7.48,1.95-3.23,2.61-11.28,11.64-13.93,12.96-1.25.62-2.83.32-4.23,1.52-.26.22-2.57,3.41-2.71,3.72-2.27,5.06,4.13,9.49,1.6,15.1l3.91,1.88c.45.71-.4,2.1-.18,3.33.21,1.2,1.67,2.39,1.76,3.36.17,1.75-3.21,6.82-3.09,9.1.05,1.07,1.08,2.22,1.23,3.33.36,2.73-1.82,5.03,1.88,6.88-1.02,4.13-3.12,2.67-5.44,3.76-.84.39-1.05,1.42-1.78,1.9-1.62,1.07-3.88,1.57-5.43,2.84l-7.03,13.61c.86,2.89,1.69,6,3.09,8.68.7,1.34,5.62,8.94,6.43,9.66.59.53.78.67,1.62.72,2.35.12,6.35-.93,9-.71,2.11-1.01,3.44-3.62,5.33-4.79.9-.56,10.4-4.49,11.04-4.54,1.09-.09,3.48,1.22,5,1.18,1.28-.03,2.26-1,3.32-1.19,1.72-.31,5.07-.28,6.45-.91,2.1-.96,7.96-11.24,10.44-13.47,5.84-5.23,13.67-3.51,19.41.87l.61-.13c3.16-3.67,5.58-8.38,8.75-11.98.89-1.01,4.56-4.65,5.51-5.06,2.63-1.12,4.68.95,6.63.68,2.25-.31,8.35-5.9,10.49-5.45.54.11,1.05.64,1.61.79l31.71-20.3c.67-3.57,3.39-4.32,5.82-6.44.24-2.62-.77-6.76-.07-9.2.1-.36,3.16-4.31,3.42-4.39.93-.31,2.17.1,3.14-.08.98-.18,1.24-1.06,1.94-1.28.58-.18,4.32-.65,4.96-.6,4.09.32,5.83,6.28,4.48,9.58-.22.53-6.51,8.22-7.22,8.88-2.15,2.02-4.92,1.16-7.56,1.41-1.7,1.68,2.05,7.71,3.31,7.68.18,0,3.33-.97,3.51-1.09,4.67-5.13,9.13-15.03,14.77-18.8,1.36-.91,2.64-.94,3.88-1.64,2-1.13,8.06-5.92,9.89-7.58,2.3-2.09,5.93-9.26,7.35-10.12,1.06-.64,2.61.17,3.67-.46,1.52-.91,4.17-8.58,5.75-9.88,1.24-1.02,2.89.04,4.17-.89,1.27-.92,4.28-7.61,5.71-9.46,5.05-6.55,14.08-13.63,20.01-20,3.73-4,8.74-9.44,12.17-13.58,1.81-2.18,3.38-5.6,5.28-7.59,2.67-2.79,7.88-4.8,9.54-8.4Z"/>
    <path class="st4" d="M82.3,547.13c-.67.18-2.82,12.29-2.56,13.59.09.47,5.23,7.26,5.71,7.63.54.42.96.54,1.63.43.65-.45.19-4.35-.11-5.17-.34-.93-1.62-1.75-1.93-2.66-.45-1.33-.4-4.2-.15-5.62.72-3.96,6.28-7.88-2.59-8.19Z"/>
    <path class="st4" d="M272.36,598.97c-.61.95-.74,7.25,0,7.77l6.47.2c.43-.43-.44-7.41-1.01-8.19-.67-.92-4.6-1.14-5.47.22Z"/>
    <path class="st4" d="M144.33,494.75h7.59c1.64-3.08-5.58-6.33-7.62-6.41-.43-.02-4.32.45-4.34.67-.7,1.58,3.65,5.74,4.37,5.74Z"/>
    <path class="st4" d="M270.1,639.59c-.45.6,3.28,4.19,4.09,4.37.69.16,3.26-.9,3.26-1.39-2.44-1.93-4-4.87-7.35-2.98Z"/>
  </g>
  <g>
    <path class="st3" d="M524.25,233.7c1.23.98,3.99,6.94,2.15,8.2-.22.15-4.03,1.28-4.54,1.34-4.5.55-16.13.07-20.14-1.96-1.24-.62-1.94-3.25-2.89-4.47-.7-.9-1.81-.9-2.05-2.09-.26-1.29,1.33-11.11,1.94-12.32,2.83-5.59,8.32,2.51,10.5,3.56,2.75,1.33,7.69,1.03,10.54,3.72.9.85.79,2.37,1.59,3.01s2.1.37,2.9,1.01Z"/>
    <path class="st3" d="M644.77,151.65c-.32.2-2.75.2-3.07,0l-8.72-16.82c-.47-2.37.87-2.18,1.69-3.63,3.37-6.02-4.04-9.34-2.49-13.99.45-1.36,2.75-4.16,4.18-2.28.94,2.06,1.83,9.44,3.18,10.61.86.74,2.24.51,3.23,1.82.91,1.21,3.34,8.37,2.91,9.78-.35,1.15-2.05,1.21-1.76,3.28.23,1.61,2.54,2.8,2.62,4.54.05,1.1-.96,6.2-1.77,6.69Z"/>
    <path class="st3" d="M666.46,120.92l-2.78.77c-.22,1.94.36,4.52,0,6.35-.24,1.23-1.27,1.39-1.59,2.08-1.49,3.2,1.92,5.95,1.63,7.53-1.3,2.33-4.98-2.79-5.1-3.65-.21-1.48,1.07-2.96.97-4.58-.1-1.7-1.83-2.45-1.92-4.13-.05-1.02.5-2.09.52-3.2.04-3.35-.14-6.71.05-10.06l.63-.76c.6-.13.95.09,1.4.43.49.37,5.78,7.23,5.97,7.82.16.47.28.9.21,1.4Z"/>
    <path class="st3" d="M491.66,218.8l-3.61.98c-.29-2.74-.07-4.27,2.53-5.51,1.07,1.33,1.45,2.83,1.08,4.53Z"/>
    <path class="st3" d="M492.64,225.3c-.52-.21-4.17.6-3.67-.68.68-1.75,3.69-1.48,3.67.68Z"/>
    <path class="st3" d="M642.33,89.64c-.61-.97-1.43.49-1.86.45-.35-.65-1.89-2.1-1.99-2.58-.2-1.01,4.4-8.23,2.62-9.3-2.38-.2-5.61.26-5.95-2.79-1.12-.76-5.67,4.09-5.77,4.53-.25,1.1.26,1.89.14,2.49-.1.45-.6.91-.73,1.5-.19.9-.67,4.97-1.03,5.19-.42.25-1.63-.07-2.38.15-1.98.58-4.86,10.35-6.52,11.87-1.66,1.53-4.41-1.92-5.53-3.22-.37-.43-2.85-3.37-2.52-3.68,5.12,2.57,3.83-.5,5.72-1.87.75-.54,1.7-.31,2.58-1.1,1.86-1.66,2.03-5.08,5.88-5.38-.69-3.38,1.01-5.01,1.81-7.62.27-.89-.11-1.99.33-2.9.37-.78,2.92-1.32,2.02-3.6l-38.53-13.19-2.81.99-17.16-6.78c-3.46-2.67-2.36-7.14-3.18-11.07-.2-.96-1.69-5.65-2.14-6.14-.83-.91-2.32-.53-3.44-1.16-1.31-.74-3.08-3.69-5.31-4.35-2.18-.64-4.73,1.15-6.47-.44-1.5-1.37,2.87-3.82,1.17-5.28-3.78.61-2.34,4.04-3.21,5.51-.34.58-2.27.93-3.19,2.33-.79,1.2-3.14,8.36-3.56,8.62l-2.23-.16-65.7-25.48c-5.02,16.42-8.92,33.28-13.98,49.71-.87,2.82-4.2,9.85-4.22,12.09-.02,2.84,1.36,2.21,2.75,3.45,4.84,4.29,5.51,2.71,10.66,4.97.79.35,5.3,3.1,5.66,3.54.71.87,1.07,6.02.81,7.25-.46,2.22-4.41,6.69-5.78,8.93-7.92,12.93-16.81,27.22-22.04,41.41-2.21,6-4.49,11.31-3.74,17.76.37,3.15,1.57,6.45,1.8,9.69.72,9.9-.98,19.91-.38,29.81,2,1.71,6.41,10.05,8.43,10.43,1.59.3,3.78-.42,5.27.25,2.19.99,6.74,8,9.18,8.75,1.03.32,5.2.46,6-.03,1.74-1.05,6.34-10.28,8.48-12.21,2.5-1.31,3.1-1.1,3.76-4.14l15.96.11,5.04,6.98c1.21.49,3.04-.9,4.7-1.09,1.42-.16,7.63-.24,8.38.59.84.92,1.11,4.8,4.06,2.66.46-.34,4.85-7.13,5.04-7.83.49-1.84.23-3.11-.22-4.87-.27-1.03-3.2-8.15-3.68-8.73-1.27-1.55-6-2.35-8.06-3.9-1.88-1.41-5.51-5.83-5.75-8.27,2.55,2.08,5.18,4.76,7.94,6.54,2.31,1.49,5.97,2.44,7.66,3.83,1.37,1.13,3.72,5.36,5.1,5.94,3.33,1.4,10.52-2.04,11.03,2.76.46,4.33-.55,7.88,3.19,11.49l10.61-1.83c1.75-.83.24-4.63-.53-5.91-.62-1.03-2.04-1.65-2.24-2.85-.49-2.97,3.69-4.79-1.05-7.2-2.15-1.09-4.61-.22-5.38-3.12,1.06.07,1.62.87,2.73,1.17,3.82,1.03,7.01-.02,8.28,5.06,2,1.41,2.67-4.47,3.3-5.94,1.23-2.9,3.69-5.48,5-8.37.04-3.51-1.6-7.81-1.82-11.06-.06-.84-.08-1.46.67-2,1.05,3.61,5,7.25,4.26,11.15-.3,1.58-2.01,4.13-2.19,5.67-.15,1.36.29,7.9.46,9.61.35,3.45,2.74,6.95,3.74,10.28l6.37-.39,1.43-8.69c6.37,1.09,13.1-4.76,19.04-4.68,1.66.02,8.02,1.01,9.4,1.67,1.81.87,5.23,6.11,6.93,6.87,1.29.58,2.93,0,4.78.74,2.24.89,12.5,9.91,14.47,6.79.68-3.75-1.72-3.19-3.86-4.53-1.71-1.06-4.29-3.57-5.86-4.26-1.51-.66-4.41-.52-5.55-1.23-.47-.3-.71-1.61-1.45-2.34-.84-.83-2.69-1.25-3.02-1.68-.86-1.14-.92-4.61-1.8-6.13.88-.87,5.11,4.61,6.21,4.51l4.36-5.19c-2.94-2.24-7.3-2.97-9.41-6.24-1.19-1.85-2.09-8.82-2.99-9.43-1.43-.98-5.22,2.04-6.77,2.48-3.55-1.39-.13-5.45-.61-7.96-.14-.75-1.84-2.84-2.38-4.07-1.32-3.04-1.92-9.3-1.29-12.49.2-.99,1.08-1.27,1.28-1.94,1.3-4.28-2.3-5.55-2.67-8.18-.21-1.47,2.61.02,3.2-1.37-1.38-2.78-2.32-4.14-2.3-7.38.02-3.72-.13-2.25-.8-5.14-.37-1.59.07-3.41-.3-5.22-.35-1.69-1.65-3.09-2.06-4.75,2.54-2.55,6.46-2.09,4.82-6.74-.45-.66-3.68-.58-4.54-.34-.45.13-2.26,2.36-2.62.59-.15-.75,1.11-1.69,1.29-2.41.14-.58-1.49-8.98-1.85-9.89-.45-1.12-1.6-1.05-2.23-2.36-.44-.92-1.84-7.71-1.81-8.76.1-4.04,3.03-8.1,3.58-11.62.18-1.17.28-8.09.57-8.4l1.62.45c1.28,6.83-2.42,13.81.25,20.43-3.99,1.15-3.49,2.96-2.33,6.37l.58.48c1.05-.25,2.52.4,3.33.31,1.18-.12,1.66-2.02,3.02-1.18,1.59,2.6,1,5.13-.78,7.39.74,2.3,3.31,2.92,4.91,4.11,3.05,2.27,4.9,9.54,8.51,3.96l1.36.42.78,13.48,5.38,7.39c1.15,1.39,3.58-2.83,3.71-3.65.39-2.38-1.74-3.33-1.31-4.92.31-1.13,4.34-4,5.21-5.41.67-1.09,3.43-5.86,3.79-6.79.94-2.48,1.25-11.41,2.2-12.51.65-.75,2.3-.32,3.44-.7.6-.2,4.82-3.19,4.99-3.75.24-.78.25-3.15-.13-3.84Z"/>
  </g>
  <g>
    <path class="st0" d="M299.29,394.59l3.9,2.91-2.13,2c-1.32.26-2.53-2.15-3.34-2.98l1.57-1.92Z"/>
    <path class="st0" d="M299.06,400.94l-2.3.74c-1.1-1.01-2.31-3.08-.23-3.5.74,0,2.94,2.18,2.52,2.77Z"/>
    <g>
      <path class="st0" d="M454.36,250c-.18.15-4,1.8-4.34,1.87-3.65.75-8.04-1.79-11.2-3.41.65-1.71.15-4.16.75-5.67.91-2.32,6.86-8.21,8.6-11.17,1.59-2.7,2.17-5.36,2.59-8.45.18-1.32-.27-3.89.28-4.78.76-1.23,4.04-2.27,5.55-1.39.6.35,9.54,9.28,9.88,9.88,3.1,5.41-4.57,8.95-6.85,12.51-1.65,2.58-2.94,8.64-5.26,10.6Z"/>
      <path class="st0" d="M406.65,305.3c-.96.05-.27-1.29-.1-1.71,3.94-9.68,15.82-25.96,22.44-34.58.68-.89,1.69-2.37,2.71-2.8,1.1.24.91,4.8.16,5.67l-25.22,33.41Z"/>
      <path class="st0" d="M401.14,309.91l-3.45,4.59c-1.09-.86-.51-.66,0-1.36.37-.5,2.78-3.86,3.44-3.23Z"/>
      <path class="st0" d="M441.62,206.21c-.27-1.42-.41-5.55-.49-7.33-.3-6.72.23-13.53.04-20.27-.2-7.06-1.76-14.41-.94-21.59.38-3.34,4.45-11.68,6.05-15.1,7.2-15.43,15.67-30.18,25.13-44.32l-.82-5.88-11.02-2.94-.02,1.34c-4.05.24-2.13-5.74-5.03-6.69-1.22-.4-4.92-.13-5.99.5-.37.22-4.05,5.56-4.34,6.24-1.8,4.22-1.66,10.68-3.41,14.99-1.61,3.95-8.29,13.53-11.02,17.49-1.15,1.67-5.63,6.47-5.97,7.82-.82,3.2.85,8.26.24,12.19-.45,2.9-3.14,10.09-4.28,13.2-4.22,11.52-10.87,23.04-16.68,33.89-19.97,37.27-41.21,73.9-61.32,111.11-2.82,8.44-2.19,17.51-3.14,26.29-.21,1.96-1.44,5.42-1.4,6.93.04,1.52,1.72,2.3,1.43,4.11-.3,1.89-3.06,1.2-3.62,1.7-.28.24-1.75,6.41-1.85,7.16-.26,2.07,1.63,1.32,2.92,1.5.64.09.8-.27.68.68-.43,3.41-3.87-.15-4.39,3.43l-4.75,32.87,3.11,1.24c-.17,2.62.33,5.27,2.21,7.25,1.97-.31,3.99-.3,5.92-.85,1.43-.41,8.85-4.18,9.98-5.07,1.95-1.52,3.77-7.75,6.29-8.54,7.68-1.05,15.99-.47,23.49-2.26,3.5-.84,4.32-1.07,6.34-4.23,2.41-3.76,5.8-18.93,6.47-23.88.15-1.14.6-5.91.42-6.75-.48-2.18-3.22-3.25-3.15-6.06.07-2.78,1.49-4.68,1.84-6.48.85-4.49-.16-10.16,2.69-14.78l36.07-50.84c1.78-4.41-1.85-10.81-.05-14.31,1.1-2.14,5.25-4.45,6.41-6.92,1.12-2.38,1.34-4.99,3.19-7.39,1.6-2.08,7.97-5.85,8.53-7.56.18-4.6.8-10.5-.84-14.86-.82-2.18-4.66-5.61-4.93-7.02Z"/>
    </g>
  </g>
</svg>