<?xml version="1.0" encoding="UTF-8"?>
<svg id="Ebene_1" data-name="Ebene 1" xmlns="http://www.w3.org/2000/svg" viewBox="0 0 372.57 465.15">
  <defs>
    <style>
      .cls-1 {
        fill: #e49249;
      }
    </style>
  </defs>
  <path class="cls-1" d="M249.67,341.84c-.32.45-1.61,1.5-2.13,1.74-2.91,1.36-5.82,2.9-8.22,5.12-1.53,1.41-2.28,1.57-3.25-.48,5.48.78,1.67-2.87,2.49-4.37.98-1.24,5.48-2.72,6-3.68,1.25-2.31.15-5-.22-7.35,1.68.55,1.09,2.32,1.8,3.48.64,1.05,3.52,2.3,4.43,3.4.23.47-.58,1.69-.91,2.15Z"/>
  <path class="cls-1" d="M269.63,330.05l.46,7.82-6.9-1.38c-.72-.8,5.53-7.37,6.44-6.44Z"/>
  <path class="cls-1" d="M224.56,319.94c-.06,1.6-2.16,1.58-2.56,3.2-.18.74.3,1.54.18,2.42-.32,2.44-5.26,5.52-4.96,1.56s3.9-5.94,7.34-7.18Z"/>
  <path class="cls-1" d="M219.96,334.19c-1.06.2-.73-.08-1.02-.59-1.12-1.96-.7-2.92.8-4.47,2.49.66.09,3.4.22,5.06Z"/>
  <g>
    <path class="cls-1" d="M274.36,343.7c.99,1.12,3.74.87,4.63,1.48.48.33.29,1.52.99,1.89,2.61-2.36,5.82.31,8.15-.08,1.77-.3,4.76-2.97,6.6-3.14.48-.04,4.54.53,4.79.68.66.38,2.9,6.72,3.76,8.19,1.33,2.26,3.27,4.11,4.87,6.16l.53,14.83c-.81.83-8.05.14-9.75.59-2.48.66-7.44,5.69-9.86,6.23-5.65,1.27-15,.32-21.07.54-12.07.44-17.22,3.5-28.16,6.32-6.48,1.67-13.53,2.27-19.96,3.95-19.14,4.98-44.93,15.19-62.38,24.52-3.14,1.68-11.14,8.23-13.27,8.8-1.7.46-2.68-.35-4.03-.36-2.22,0-12.64,5.53-15.74,6.79-9.98,4.03-20.47,6.9-30.45,10.97-6.8-.8-15.36.98-22.18,2.62-9.44,2.27-19.03,6.58-28.41,8.86-.61.15-.66.38-1.14-.27-.32-.42-1.85-4.74-1.97-5.39-.51-2.84.7-7.79,3.14-9.52s5.36-1.6,8.03-2.54c2.31-.81,5.17-2.59,7.45-3.13,2.68-.63,6.41-.14,8.87-.78,2-.52,6.97-4.61,8.57-4.74l6.94,3.5,8.6-.86,9.77-7.24,20.84-2.15,35.37-22.56c5.03-.8,10.72.43,15.67-.42,7.51-1.28,13.69-6.17,20.43-8.54,2.08-.73,4.33-.62,6.09-1.26,5.3-1.95,12.48-9.96,16.89-13.46.74-.58,2.04-.6,2.56-1.12.72-.71.6-3.48,1.26-4.72,1.94-3.64,9.99-1.16,13.56-2.07l9.05-7.06,1.36,1.36c-1.19,2.18-6.28,6.85-6.76,8.9-.19.81-.53,4.6,1.04,4.27,1.09-.23.48-3.4.94-4.58,1-2.51,6.15-6.24,7.49-9.06,1.52-3.2,1.94-4.73,3.85-8.1.66-1.17,1.44-4.48,2.51-4.85h5.83c2.57,2.1,2.87,4.66,1.94,7.77-.11.38-3.24,6.6-3.53,7.05-1.44,2.21-5.25,2.97-5.81,3.62-.85.98-.84,3.99,1.03,4.02,3.15-.34,3.65-3.78,5.29-5.29,2.87-2.63,2.02,2.01,2.38,3.15.62,1.95,5.72,1.22,7.3.53.6-.38.24-.6.15-1.04-.58-2.9-1.96-7.74-2.03-10.45s.97-5.79.5-8.64c-1.65-.68-7.21-6.1-3.46-6.76,2.83-.5,6.27-.14,9.14-.89.9.28,1.25,2.88,1.8,3.51Z"/>
    <path class="cls-1" d="M203.36,354.85l-1.96-.41c-.36.1-1.61,3.67-1.69,4.33-.43,3.57.29,6.4-.94,10.55-1.81,6.1-3.94,4.44-9.17,3.29l-1.31-4.1,1.63-1.64,1.8,1.33c1.1.25,2.99-3.86.66-3.89l2.18-1.35c-1.17-1.87.54-2.19.56-2.38.15-1.16-.17-5.5.07-6.32.16-.53,1.05-.61,1.47-1.34.72-1.26,2.69-5.52,2.42-6.78-.07-.34-1.22-3.05-1.86-2.75l-.7,3.21c-2.98.26-2.73-2.12-3.56-3.55-.28-.49-1.86-3.18-2.02-3.27-.43-.26-1.59.05-2.35-.18-1.37-.41-2.43-2.4-4.49-1.73-.42-1.6.93-1.26,1.44-2.47.73-1.74-.33-3.35,2.27-3.75l-1.41-4.82c-1.43-.98-5.87,6.04-6.22,7.34-.22.8-.42,1.53.01,2.32l2.54.92c-2.39,3.11-4.1,2.51-6.89.45.42-1.43,1.99-2.08,2.65-3.55.77-1.72.69-4.12,1.37-5.52.51-1.05,1.89-1.29,2.22-1.96.26-.52-.33-1.33-.27-1.37.16-.13,1.92.22,2.3-.69l-1.83-.91c1.76-2.59,3.17-4.3,1.29-7.28-.41-.65-1.64-1.58-1.71-1.98-.06-.35,1.83-4.93,1.82-6.83,0-3.24-2.62-6.87-2.77-9.7-.04-.8-.01-1.07.67-1.56,1.46,1.64,3.4,2.74,5.06,4.13.97.81.42,1.62,2.27,1.87,7.67,1,3.13-6.09,3.48-6.46l1.27.79c1.37,7.89,3.25,15.66,5.06,23.45.67,2.87,1.03,3.84,1.82,6.46,1.06,3.53,1.28,9.45,2.54,12.17.39.84,1.62,1.6,1.68,2.02.08.5-.72.96-.76,1.68-.13,2.18,1.5,5.35,1.28,7.92-.15,1.76-1.35,2.8-1.92,4.34Z"/>
    <path class="cls-1" d="M175.83,342.93c.79,1.1-1.75,2.52-2.06,3.22-.68,1.54.05,3.85-1.86,5.51-1.05.91-1.75-.07-2.97,0-.28,2.26,3.44,2.75.95,4.86-.32.27-5.08,1.93-5.4,1.95s-3.04-1.55-3.14-1.73c-.2-.35.38-1.19.04-1.86-.4-.8-1.62-.58-1.64-1.38.94.31,4.4-3.16,4.52-3.53.28-.86-.07-2.06.16-3.06.21-.92,1.2-1.53,1.29-2.41.13-1.25-1.12-2.55-.92-3.89,2.7-.63,4.22,3.54,5.76,3.69s4.26-2.78,5.27-1.39Z"/>
    <path class="cls-1" d="M142.39,361.45c1.21-1.08,2.4.54,3.8.76,2.57.41,6.57-.77,8.48,1.63.41.51,1.9,3.15,1.78,3.59-.95,3.6-8.11,5.03-11.12,3.45-.65-.34-4.26-4.58-4.39-5.3-.19-1.06.67-3.44,1.44-4.13Z"/>
    <path class="cls-1" d="M205.99,357.66c1.14-.34,4.73,2.43,5.13,3.54.6,1.66.99,5.84-1.25,6.37-1.51.36-7.1-8.96-3.88-9.91Z"/>
    <path class="cls-1" d="M178.55,375.61l.03,1.33c-2.42.82-4.96,1.26-7.47.36-1.35-.48-1.79-2.24-4.02-1.27,1.83-2.26,3.95-5.1,7.16-3.71,1.83.79,2.15,3.12,4.3,3.29Z"/>
    <path class="cls-1" d="M183.55,369.26l.33.81,2.47-.88,1.78,2.46-.57,1.19c-3.55.23-4.55,2.86-8.46.84-1.38-1.66,3.26-5.12,4.45-4.42Z"/>
    <path class="cls-1" d="M227.33,355.8l.46-1.38,1.62.45c.65,1.14-.04,2.09-.94,2.77l-.74-1.33c-2.54.77-4.61,2.05-7.31.87.27-.66.27-2.22.57-2.64.11-.16,3.2-1.8,3.4-1.82,2.02-.25,3.52.99,2.94,3.09Z"/>
    <path class="cls-1" d="M179.96,376.95c.11,1.17.08,2.24-.91,2.99l2.28,1.38-.52,1.1c-2.41-.22-5.73,2.97-5.46-1.32l1.82-.02c-.59-.99,2.18-4.82,2.78-4.12Z"/>
    <path class="cls-1" d="M162.94,297.4l1.83,4.12-2.06.94-1.14-.92.46,2.29h-1.83c-.49-.47.71-6.9,2.75-6.43Z"/>
    <path class="cls-1" d="M152.83,306.6c.64,3.69-.63,4.65-4.13,5.06l-.27-3.24c.85-1.16,3.29.22,3.48.02l.92-1.84Z"/>
    <path class="cls-1" d="M155.08,347.14c-.36,1.29,1.44,1.14.75,2.23-.95,1.5-1.97.68-1.16-.93h-1.84s.84,1.15.84,1.15l-1.76,1.15-.47-2.76c1.92.56,1.78-1.53,3.63-.84Z"/>
    <path class="cls-1" d="M358.38,102.21c-.16-1.54.43-3.28-.44-4.62l-66.54-53.91c-4.11.97-5.27,7.07-5.25,10.71,0,1.92,1.56,4.88,1.33,6.35-.2,1.27-1.74,1.71-1.78,3.29-.04,1.28,1.79,8.14,1.4,8.53-1.64-.33-3.88-1.29-5.28-2.3-7.28-5.26-9.75-16.76-14.76-24.33-1.2-1.82-5.61-6.37-5.72-8.13-.15-2.5,3.36-1.97,3.23-4.06-.12-2.04-4.68-11.07-6.43-12.47-1.68-1.34-4.55-2.02-6.33-.55-1.86,1.53.4,4.16.2,6.03-.1.92-1.41,3.32-2.39,3.51-1.33.25-13.11.22-14.16-.1-.51-.15-2.44-2.06-2.56-2.54-.3-1.18,1.06-2.88-.18-4.15-.27-.27-5.11-2.76-5.66-2.84-4.08-.64-9.36.16-13.74-.52-1.51-.23-2.42-1.48-3.37-1.73-1.12-.28-2.01.41-2.89.18-2.28-.6-5.44-5.7-7.57-5.61-1.62.07-4.21,4.24-5.77,5.07-1.42.76-5.18.93-6,1.84l-.34.87c1.23,1.82.82,3.88.85,5.97-.1.38-3.35,2.36-3.95,3.05-2.33,2.72-1.28,4.95-7.15,3.44-2.25-4.26,2.46-14.06-5.16-13.46-2.12,4-2.57,2.56-5.95,3.25-1.44.29-3.03,1.8-4.81,2.09-2.82.46-4.33-.83-7.02-.81-.49,3.68,2.52,7.02.7,10.59-1.65,3.22-9.32,1.2-5.95,7.32,2.65,4.81,6,1.74,10.37,3.51.02,3.02,1.9,7.82,1.81,10.53-.08,2.19-1.91,4.73-2.2,7.03-.52,4.11,2.52,8.61,6.53,9.79,1.1.32,4.22.36,4.39,1.13l-7.84,8.7c-1.51,1.14-4.88,1.98-6.73,1.93-1.48-.04-8.62-4.42-9.82-5.56-.91-.87-4.54-7.9-4.11-8.52l8.27-2.09c-2.29-2.57-.26-4.32-.68-7.11l-19.29-13.84c-5.3-.87-11.19,1.28-16.55,1.91-1.33.76-.26,2.13-.25,3.39.02,2.21,0,4.44-.07,6.64l-8.42,1.35c-1.29-.28-2.62-8.06.18-8.43-1.77-1.19-6.38-6.73-7.82-7.35-2.38-1.03-3.79.94-6.12.76l-2.14,3.84c-1.47.94-1.68-1.84-1.15-3,.09-.2,2.05-2.21,2.26-2.33,1.3-.74,2.54-.28,3.95-.65,1.62-.43,5.6-3.27,3.99-5.16-.3-.36-7.11-5.46-7.56-5.59-3.28-.89-2.18,2.98-3.56,2.69-2.3-2.21-4.48-6.08-8.19-4.96-.91.27-2.86,2.87-4.02,3.33-1.02.41-2.09.03-3.01.67-.98.68-1.6,3.61-2.49,4.87-3.46,4.93-11.06,10.04-15.18,14.7-.76.35-3.1.44-3.84.18-.81-.29-.62-1.57-1.47-2.2-.72-.53-2.84-1.31-3.45-.31-.66.91-.25,2.05-.66,3.02-.65,1.51-5.9,4.34-3.44,7.14,1.06,1.21,5.06.69,3.46,3.91-.48.97-6.69,5.14-8.05,6.66-4.57,5.1-9.74,15-13.88,21.07-3.68,5.4-11.28,13.58-12.66,19.52-.81,3.49-.69,7.19-1.51,10.67,2.72.2,4.38-3.28,6.69-3.65,2.01-.32,8.39.09,10.43.55.81.18,10.88,6.06,11.63,6.76,1.7,1.61,3.33,7.46,5.1,8.7,2.97,2.07,10.29,2.17,13.54,4.4.48.5,4.63,11.7,4.93,13,.26,1.16-.13,2.53.18,3.5.34,1.07,2.26.9,2.61,1.98.33,1-.07,2.49.1,3.58-.17.66-1.71-.31-1.4.93.61,2.48,4.25,3.76,3.66,7.79-.13.91-1.1,1.73-.7,2.55,1.06,2.18,10.17,6.72,12.24,8.95,1.06,1.48-.49,3.82,2.3,4.67l-.52,2.62c1.57,1.69,9.51,5.64,9.16,7.81-.12.71-1.06,1.33-.8,2.31.36,1.39,3.92,2.78,4.65,4.58,1.21,3-.46,6.51,2,10.42,3.48,5.53,4.48.49,6.4.48l2.76,2.31c7.2-7.04,15.72-12.44,23.51-18.79,2.67-.98,5.66-1.3,8.48-.77l3.27,21.1.67.7,3.39.06c.24,1.66-.63,4.91.66,6.01.77.65,1.84.27,2.35,1.78.64,1.89.99,9.13,1.8,10.16.68.86,2.14.07,2.6.71,1.55,2.2,1.6,11.37,3.08,14.32.06,1.34-2.98,1.82-4.02,2l.2,5.49-5.24,2.97,6.58,12.23c2.45.97,5.25.43,7.74-.17,4.24-1.02-.65,5.07-.93,6.45-.58,2.85,1.3,3.64,3.8,4.27l17.86-.92c.99-1.47.56-2.67,2.13-3.94.33-.27,5.12-2.82,5.42-2.89,1.31-.28,2.32,1.24,3.56,1.26,1.48.02,5.3-1.53,7.3-1.2l51.11,31.59c1.49,2.42-3.2,8.08-4.82,9.91-1.09,1.23-6.06,5.37-6.22,6.14-.12.59.3,1.27.22,1.89-1.96.25-1.09-2.29-1.43-2.7-.38-.46-3.07-.46-3.66.26-.6.72-2.64,6.55-3.3,8.12-.26.62,0,1.3-.17,1.69-.48,1.05-2.12,1.52-2.46,2.19-.7,1.34-.5,4.43-1.38,6.08l3.45-1.67.83.25,3.77,5.09c1.02-1.47,2.22-1.53,3.91-1.37l.04-4.1c2.14-.55,6.3-1.46,7.08-3.76.43-1.28.03-3.85-1.52-4.17.6-1.32-.26-2.37.01-3.72.43-2.16,2.29-1.7,3.15-2.52,1.79-1.71,5.29-10.49,6.87-11.4.29-.17,3.81-.66,4.27-.6.53.07,5.66,3.09,5.87,3.45,1.48,2.45-1.53,10.76-2.17,13.71l1.44,1.14c2.38-3.5,6.55-6.46,7.09-10.85.21-1.68-.37-3.53.49-5.03.25-.45,5.11-4.66,5.85-5.18,5.32-3.73,12.86-6.26,18.41-9.86l1.09-4.42h1.73s1.24,4.57,1.24,4.57c2.24.53,1.73-1.84,2.95-3.35.66-.82,2.19-1.44,3-2.19.69,1.6-.76,4.18,1.84,4.18,3.99,0-1.34-6.46-1.63-8.53-.3-2.18.16-8.7.51-11.03.33-2.16,5.44-4.12,7.55-4.86,2.34-.82,13.79-3.5,14.73-5.04.63-1.05-.17-4.63-.45-6-.66-3.23-3.47-9.05-3.46-11.71,0-5.49-.54-12.63,0-17.93.34-3.31,2.6-6.85,2.78-10.11.1-1.74-.49-3.08-.5-4.59-.18-15.4,1.16-32.77.04-47.86-.59-7.83-4.22-16.33-5.01-24.26.22-.79,1.86-1.64,2.6-2.03,2.99-1.56,10.63-4.51,13.89-5.42,3.91-1.09,8.34-1.09,12.21-2.5l10.88-18.55c.37-6.48-.78-13.34-1.48-19.88Z"/>
  </g>
</svg>