<?xml version="1.0" encoding="UTF-8"?>
<svg id="Ebene_1" data-name="Ebene 1" xmlns="http://www.w3.org/2000/svg" viewBox="0 0 291.17 284.99">
  <defs>
    <style>
      .cls-1 {
        fill: #697aa2;
      }
    </style>
  </defs>
  <path class="cls-1" d="M277.15,99.89l6.84-19.8c-.08-.37-5.73-3.12-6.35-4.1-.51-.81-.31-2.71-1.29-4-.77-1.02-3.11-2.01-3.66-3.24-.59-1.33-.27-3.59-.96-5.02-.44-.91-2.58-2.54-2.87-3.57-.4-1.41.23-3.12-.4-4.62-.31-.75-1.38-.78-1.9-1.81-.63-1.23-.33-2.63-.8-3.8-.48-1.19-3.05-3.11-3.33-4.03-.73-2.41-.79-2.56-1.69-4.75-1.69-4.09.65-20.7-.8-27.25-.1-.45-2.11-3.83-2.4-4.04-.95-.69-2.67-.31-3.38-.99-.91-.88-.6-4-1.95-4.72-1.89-.22-3.88-1.12-5.74-1.19-1.8-.06-6.42.29-8.24.53-3.26.44-6.47,3.49-9.45,4.81-6.48,2.87-16.64-.07-23.59,1.24-1.43.27-10.21,4.38-11.69,5.32-2.33,1.47-3.82,4.23-6.84,4.66-2.93.42-2.61-.91-4.47-1.92-3.36-1.83-7.23-2.92-11.12-2.19-1.86.35-2.08,2.91-3.89,3.46-1.15.35-2.29.03-3.37.31-.96.25-1.67,1.48-2.89,1.71-2.8.52-6.37-1.34-7.79,1.85-.95-.95-1.63-2.08-3.17-1.86l-1.43,2.32c-2.03-3.01-3.85-3.4-7.41-3.63-.75-.05-1.66.55-2.2.39-.74-.21-.72-1.53-1.18-2.06-1.43-1.68-9.11-1.52-11.63-2.63-1.96-.86-3-4.17-4.82-4.42-1.47-.2-1.55,1.51-3.02,2.33-1,.56-2.39.86-3.54.83l-.04-3.18c-.12-.2-4.39-.45-4.69-.42-.55.07-6.17,3.13-6.57,3.56-.79.85-.51,1.84-.88,2.34-.41.55-1.6.39-2.33.89-4.19,2.89-4.55,6.19-6.91,9.65-1.89,2.78-5.94,4.75-7.08,8.1-1.5,4.44-1.63,10.02-1.4,14.69.09,1.82.38,6.34.93,7.81,1.13,3.04,4.2,1.69,6.17,3.49.53.48,2.13,3.6,2.1,4.3-.13,2.51-4.13,8.15-4.39,10.8-.15,1.59,2.29,3.37,2.56,5.32.41,2.92-.68,4.18-.95,6.44-.19,1.58.28,3.51,0,5.05-.63,3.41-7.93,10.47-8.97,14.02-.68,2.32-.34,6.04-.72,8.47-1.01,6.45-3.04,12.7-4.08,19.14h7.59l2.34-10.17c4.1-1.18,7.83-.54,9.85,3.49-.43,2.02-5.4-1.69-6.45-.96-1.52,3.12-1.43,8.03-4.79,9.95-2,1.15-7.69-.31-9.77,2.42-.91,1.19-2.81,8.98-3.14,10.88-.43,2.48-.11,5.85-.43,7.38-.4,1.94-5.94,8.8-8.05,9.43-1.19.36-5.83.02-7.05-.34-.97-.28-1.89-1.75-3.88-2.09-3.66-.62-4.79-.21-7.48,1.95-3.23,2.61-11.28,11.64-13.93,12.96-1.25.62-2.83.32-4.23,1.52-.26.22-2.57,3.41-2.71,3.72-2.27,5.06,4.13,9.49,1.6,15.1l3.91,1.88c.45.71-.4,2.1-.18,3.33.21,1.2,1.67,2.39,1.76,3.36.17,1.75-3.21,6.82-3.09,9.1.05,1.07,1.08,2.22,1.23,3.33.36,2.73-1.82,5.03,1.88,6.88-1.02,4.13-3.12,2.67-5.44,3.76-.84.39-1.05,1.42-1.78,1.9-1.62,1.07-3.88,1.57-5.43,2.84l-7.03,13.61c.86,2.89,1.69,6,3.09,8.68.7,1.34,5.62,8.94,6.43,9.66.59.53.78.67,1.62.72,2.35.12,6.35-.93,9-.71,2.11-1.01,3.44-3.62,5.33-4.79.9-.56,10.4-4.49,11.04-4.54,1.09-.09,3.48,1.22,5,1.18,1.28-.03,2.26-1,3.32-1.19,1.72-.31,5.07-.28,6.45-.91,2.1-.96,7.96-11.24,10.44-13.47,5.84-5.23,13.67-3.51,19.41.87l.61-.13c3.16-3.67,5.58-8.38,8.75-11.98.89-1.01,4.56-4.65,5.51-5.06,2.63-1.12,4.68.95,6.63.68,2.25-.31,8.35-5.9,10.49-5.45.54.11,1.05.64,1.61.79l31.71-20.3c.67-3.57,3.39-4.32,5.82-6.44.24-2.62-.77-6.76-.07-9.2.1-.36,3.16-4.31,3.42-4.39.93-.31,2.17.1,3.14-.08.98-.18,1.24-1.06,1.94-1.28.58-.18,4.32-.65,4.96-.6,4.09.32,5.83,6.28,4.48,9.58-.22.53-6.51,8.22-7.22,8.88-2.15,2.02-4.92,1.16-7.56,1.41-1.7,1.68,2.05,7.71,3.31,7.68.18,0,3.33-.97,3.51-1.09,4.67-5.13,9.13-15.03,14.77-18.8,1.36-.91,2.64-.94,3.88-1.64,2-1.13,8.06-5.92,9.89-7.58,2.3-2.09,5.93-9.26,7.35-10.12,1.06-.64,2.61.17,3.67-.46,1.52-.91,4.17-8.58,5.75-9.88,1.24-1.02,2.89.04,4.17-.89,1.27-.92,4.28-7.61,5.71-9.46,5.05-6.55,14.08-13.63,20.01-20,3.73-4,8.74-9.44,12.17-13.58,1.81-2.18,3.38-5.6,5.28-7.59,2.67-2.79,7.88-4.8,9.54-8.4Z"/>
  <path class="cls-1" d="M85.13,64.13c-.67.18-2.82,12.29-2.56,13.59.09.47,5.23,7.26,5.71,7.63.54.42.96.54,1.63.43.65-.45.19-4.35-.11-5.17-.34-.93-1.62-1.75-1.93-2.66-.45-1.33-.4-4.2-.15-5.62.72-3.96,6.28-7.88-2.59-8.19Z"/>
  <path class="cls-1" d="M275.18,115.97c-.61.95-.74,7.25,0,7.77l6.47.2c.43-.43-.44-7.41-1.01-8.19-.67-.92-4.6-1.14-5.47.22Z"/>
  <path class="cls-1" d="M147.16,11.74h7.59c1.64-3.08-5.58-6.33-7.62-6.41-.43-.02-4.32.45-4.34.67-.7,1.58,3.65,5.74,4.37,5.74Z"/>
  <path class="cls-1" d="M272.92,156.59c-.45.6,3.28,4.19,4.09,4.37.69.16,3.26-.9,3.26-1.39-2.44-1.93-4-4.87-7.35-2.98Z"/>
</svg>